<?xml version="1.0" standalone="no"?>
<!DOCTYPE svg PUBLIC "-//W3C//DTD SVG 20010904//EN"
 "http://www.w3.org/TR/2001/REC-SVG-20010904/DTD/svg10.dtd">
<svg version="1.0" xmlns="http://www.w3.org/2000/svg"
 width="512.000000pt" height="512.000000pt" viewBox="0 0 512.000000 512.000000"
 preserveAspectRatio="xMidYMid meet">
<metadata>
Created by potrace 1.11, written by Peter Selinger 2001-2013
</metadata>
<g transform="translate(0.000000,512.000000) scale(0.100000,-0.100000)"
fill="#000000" stroke="none">
<path d="M70 4353 l0 -83 80 -1 c44 -1 83 -2 88 -3 4 -1 32 -6 62 -10 189 -28
257 -103 277 -306 5 -41 8 -700 8 -1465 l0 -1390 -27 -50 c-58 -110 -141 -157
-271 -155 -45 1 -112 1 -149 1 l-68 -1 0 -95 0 -95 675 0 675 0 0 89 0 88 -52
2 c-57 1 -184 10 -208 15 -8 1 -35 6 -60 10 -81 13 -171 99 -198 188 -6 20
-11 2528 -5 2528 1 0 13 -24 27 -52 13 -29 38 -84 56 -123 113 -246 194 -422
230 -500 23 -49 76 -164 117 -255 42 -91 96 -208 120 -260 25 -52 64 -138 88
-190 24 -52 60 -131 80 -175 47 -101 90 -195 122 -265 14 -30 41 -89 60 -130
20 -41 70 -151 113 -245 43 -93 103 -223 134 -289 31 -65 56 -120 56 -122 0
-2 23 -53 51 -112 28 -59 60 -128 71 -154 18 -41 24 -48 49 -48 21 0 29 5 30
18 0 9 1 297 1 638 l0 622 -72 158 c-40 88 -97 210 -127 273 -29 62 -53 115
-53 117 0 2 -27 60 -60 130 -33 69 -60 127 -60 129 0 2 -15 36 -34 77 -90 193
-341 738 -356 773 -10 22 -39 84 -64 138 -25 54 -46 100 -46 102 0 2 -22 50
-49 107 -27 57 -72 155 -101 218 -29 63 -65 142 -81 175 l-29 60 -550 0 -550
0 0 -82z"/>
<path d="M4019 4362 c-8 -2 -54 -92 -104 -200 -150 -331 -325 -713 -366 -800
-21 -46 -39 -85 -39 -87 0 -3 -37 -83 -110 -240 -15 -33 -38 -82 -50 -110 -13
-27 -36 -79 -52 -115 -17 -36 -64 -139 -105 -230 -42 -91 -89 -194 -106 -230
-16 -36 -68 -148 -114 -250 -120 -261 -140 -306 -176 -385 -18 -38 -44 -94
-58 -125 l-26 -55 -102 204 -101 204 0 -622 0 -622 50 3 51 3 50 110 c79 171
101 219 194 420 13 27 74 160 135 295 62 135 132 287 156 339 24 51 44 95 44
96 0 2 22 50 49 108 28 58 85 181 127 274 42 92 97 211 121 263 25 52 53 113
63 135 9 22 56 123 103 225 47 102 102 221 122 265 20 44 45 98 55 120 10 22
53 114 95 205 41 90 77 166 80 168 2 2 3 -594 2 -1325 l-2 -1328 -28 -65 c-67
-158 -91 -172 -291 -176 -83 -2 -160 -3 -171 -3 -18 -1 -20 -8 -20 -66 l0 -65
777 0 777 0 3 23 c2 12 1 38 0 58 l-4 37 -76 -3 c-134 -5 -262 34 -353 107
-42 34 -58 74 -85 213 -15 82 -17 207 -17 1450 1 923 4 1375 11 1405 24 101
77 186 133 215 66 34 198 60 309 60 l85 0 -3 48 c-2 26 -9 47 -15 48 -37 2
-1006 3 -1018 1z"/>
</g>
</svg>
